<svg xmlns="http://www.w3.org/2000/svg" width="100" height="25" viewBox="0 0 100 25">
  <metadata><?xpacket begin="﻿" id="W5M0MpCehiHzreSzNTczkc9d"?>
<x:xmpmeta xmlns:x="adobe:ns:meta/" x:xmptk="Adobe XMP Core 5.6-c138 79.159824, 2016/09/14-01:09:01        ">
   <rdf:RDF xmlns:rdf="http://www.w3.org/1999/02/22-rdf-syntax-ns#">
      <rdf:Description rdf:about=""/>
   </rdf:RDF>
</x:xmpmeta>
                                                                                                    
                                                                                                    
                                                                                                    
                                                                                                    
                                                                                                    
                                                                                                    
                                                                                                    
                                                                                                    
                                                                                                    
                                                                                                    
                                                                                                    
                                                                                                    
                                                                                                    
                                                                                                    
                                                                                                    
                                                                                                    
                                                                                                    
                                                                                                    
                                                                                                    
                                                                                                    
                           
<?xpacket end="w"?></metadata>
<defs>
    <style>
      .cls-1 {
        fill: #ff6400;
        fill-rule: evenodd;
      }
    </style>
  </defs>
  <path id="FlixList" class="cls-1" d="M13.778,20.95h1.209V12.783h8.753V10.635H14.987V5.154h10V3.005H12.558V20.95h1.221Zm13.574,0h2.2V3.005h-2.2V20.95h0Zm5.579,0h2.2V7.888h-2.2V20.95h0ZM32.907,5.5h2.246V3.005H32.907V5.5ZM37.069,20.95h2.771l3.205-4.979L46.3,20.95h2.742l-4.541-6.7L48.9,7.888H46.183l-3.021,4.651L40.153,7.888H37.314l4.395,6.323L37.069,20.95h0Zm25.647,0V18.8H53.622V3.005H51.193V20.95H62.716Zm2.173,0h2.2V7.888h-2.2V20.95h0ZM64.865,5.5h2.246V3.005H64.865V5.5Zm15.049,6.177a4,4,0,0,0-1.434-3.064A5.537,5.537,0,0,0,74.849,7.5a5.428,5.428,0,0,0-3.557,1.08A3.588,3.588,0,0,0,69.98,11.5a2.966,2.966,0,0,0,.783,2.2,5.439,5.439,0,0,0,2.625,1.233l2.271,0.537a6.5,6.5,0,0,1,2.014.708,1.191,1.191,0,0,1,.5,1.038,1.9,1.9,0,0,1-.763,1.636,3.754,3.754,0,0,1-2.241.561,4.177,4.177,0,0,1-2.522-.623,2.781,2.781,0,0,1-.983-2.014H69.551a4.541,4.541,0,0,0,1.5,3.436A6.477,6.477,0,0,0,75.167,21.3a5.819,5.819,0,0,0,3.778-1.135,3.754,3.754,0,0,0,1.4-3.076,3.046,3.046,0,0,0-.809-2.258,5.776,5.776,0,0,0-2.723-1.282l-2.271-.537a6.445,6.445,0,0,1-1.99-.708,1.2,1.2,0,0,1-.5-1.05,1.567,1.567,0,0,1,.714-1.392,3.762,3.762,0,0,1,2.082-.476,3.421,3.421,0,0,1,2.119.6,2.265,2.265,0,0,1,.885,1.685h2.063Zm7.754,7.568H86.886a1.54,1.54,0,0,1-.934-0.256,0.819,0.819,0,0,1-.348-0.7V9.683h2.063V7.888H85.6V4.226h-2.2V7.888H81.6V9.683h1.807v8.606A3.183,3.183,0,0,0,84,20.474a2.7,2.7,0,0,0,2.032.635,12.274,12.274,0,0,0,1.636-.171h0v-1.7Z"/>
  <path id="Polygon_1" data-name="Polygon 1" class="cls-1" d="M37.992,4.011l-5,3V1.007Z"/>
  <path id="Polygon_1_copy" data-name="Polygon 1 copy" class="cls-1" d="M69.992,4.011l-5,3V1.007Z"/>
</svg>
